<svg xmlns="http://www.w3.org/2000/svg" viewBox="0 0 640 420" width="640" height="420" font-family="-apple-system, Segoe UI, Helvetica, Arial, sans-serif">
<rect width="640" height="420" fill="#ffffff"/>
<text x="64" y="22" font-size="15" font-weight="600" fill="#1f2328">Does talking it over beat voting? (7-digit multiplication)</text>
<text x="64" y="39" font-size="11.5" fill="#6b7280">Same 40 problems and same first answers in both · shaded = 95% CI</text>
<line x1="64" x2="616" y1="342.0" y2="342.0" stroke="#e5e7eb"/>
<text x="56" y="346.0" font-size="11" fill="#6b7280" text-anchor="end">0%</text>
<line x1="64" x2="616" y1="268.5" y2="268.5" stroke="#e5e7eb"/>
<text x="56" y="272.5" font-size="11" fill="#6b7280" text-anchor="end">25%</text>
<line x1="64" x2="616" y1="195.0" y2="195.0" stroke="#e5e7eb"/>
<text x="56" y="199.0" font-size="11" fill="#6b7280" text-anchor="end">50%</text>
<line x1="64" x2="616" y1="121.5" y2="121.5" stroke="#e5e7eb"/>
<text x="56" y="125.5" font-size="11" fill="#6b7280" text-anchor="end">75%</text>
<line x1="64" x2="616" y1="48.0" y2="48.0" stroke="#e5e7eb"/>
<text x="56" y="52.0" font-size="11" fill="#6b7280" text-anchor="end">100%</text>
<text x="16" y="195" font-size="11.5" fill="#6b7280" transform="rotate(-90 16 195)" text-anchor="middle">accuracy</text>
<text x="80.0" y="360" font-size="11" fill="#6b7280" text-anchor="middle">1</text>
<text x="340.0" y="360" font-size="11" fill="#6b7280" text-anchor="middle">3</text>
<text x="600.0" y="360" font-size="11" fill="#6b7280" text-anchor="middle">5</text>
<text x="340" y="376" font-size="11.5" fill="#6b7280" text-anchor="middle">agents in the group</text>
<polygon points="80.0,99.5 340.0,77.4 600.0,62.7 600.0,136.2 340.0,150.9 80.0,187.7" fill="#2563eb" opacity="0.12"/>
<polyline points="80.0,143.5 340.0,114.2 600.0,99.5" fill="none" stroke="#2563eb" stroke-width="2.5" stroke-linejoin="round" stroke-linecap="round"/>
<circle cx="80.0" cy="143.5" r="4" fill="#2563eb"/>
<circle cx="340.0" cy="114.2" r="4" fill="#2563eb"/>
<circle cx="600.0" cy="99.5" r="4" fill="#2563eb"/>
<polygon points="80.0,99.5 340.0,48.0 600.0,48.0 600.0,48.0 340.0,48.0 80.0,187.7" fill="#ea580c" opacity="0.12"/>
<polyline points="80.0,143.5 340.0,48.0 600.0,48.0" fill="none" stroke="#ea580c" stroke-width="2.5" stroke-linejoin="round" stroke-linecap="round"/>
<circle cx="80.0" cy="143.5" r="4" fill="#ea580c"/>
<circle cx="340.0" cy="48.0" r="4" fill="#ea580c"/>
<circle cx="600.0" cy="48.0" r="4" fill="#ea580c"/>
<line x1="64" x2="86" y1="402" y2="402" stroke="#2563eb" stroke-width="2.5"/>
<text x="92" y="406" font-size="11.5" fill="#1f2328">vote on first answers</text>
<line x1="238.4" x2="260.4" y1="402" y2="402" stroke="#ea580c" stroke-width="2.5"/>
<text x="266.4" y="406" font-size="11.5" fill="#1f2328">see the others' answers, revise, then vote</text>
</svg>